
<?xml version="1.0" encoding="iso-8859-1"?>
<!-- Generator: Adobe Illustrator 18.1.1, SVG Export Plug-In . SVG Version: 6.00 Build 0)  -->
<svg version="1.1" id="Capa_1" xmlns="http://www.w3.org/2000/svg" xmlns:xlink="http://www.w3.org/1999/xlink" x="0px" y="0px"
	 viewBox="0 0 42.697 42.697" style="enable-background:new 0 0 42.697 42.697;" xml:space="preserve">
<g>
	<path style="fill:#010002;" d="M42.147,12.896C42.147,5.774,36.374,0,29.252,0c-2.088,0-4.057,0.502-5.8,1.387
		c-1.229,0.623-2.978,0.623-4.207,0C17.502,0.502,15.533,0,13.445,0C6.323,0,0.55,5.773,0.55,12.896
		c0,0.782,0.081,1.544,0.214,2.287c0.548,3.032,19.129,26.674,19.129,26.674c0.804,1.12,2.106,1.12,2.91,0
		c0,0,18.582-23.642,19.129-26.674C42.066,14.44,42.147,13.678,42.147,12.896z"/>
</g>
<g>
</g>
<g>
</g>
<g>
</g>
<g>
</g>
<g>
</g>
<g>
</g>
<g>
</g>
<g>
</g>
<g>
</g>
<g>
</g>
<g>
</g>
<g>
</g>
<g>
</g>
<g>
</g>
<g>
</g>
</svg>